# xmcd
#
# Track frame offsets:
#	150
#	11838
#	43009
#	60142
#	74923
#	88527
#	103046
#	119116
#	153110
#	165091
#	185281
#	199615
#	217672
#	231549
#	246605
#	261895
#	275251
#	293321
#	302531
#
# Disc length: 4433 seconds
#
# Revision: 0
# Processed by: cddbd v1.4PL0 Copyright (c) Steve Scherf et al.
# Submitted via: MusicWizard 6.0.1
#
DISCID=04114f13
DTITLE=Neil Young and Crazy Horse - Zuma - Harvest
DYEAR=1975
DGENRE=Southern Rock
TTITLE0=Don't Cry No Tears  (Zuma)
TTITLE1=Danger Bird  (Zuma)
TTITLE2=Pardon My Heart  (Zuma)
TTITLE3=Lookin' For A Lover  (Zuma)
TTITLE4=Barstool Blues  (Zuma)
TTITLE5=Stupd Girl  (Zuma)
TTITLE6=Drive Back  (Zuma)
TTITLE7=Cortez The Killer  (Zuma)
TTITLE8=Through My Sails  (Zuma)
TTITLE9=Out On The Weekend  (Zuma)
TTITLE10=Harvest  (Harvest)
TTITLE11=A Man Needs A Maid  (Harvest)
TTITLE12=Heart Of Gold  (Harvest)
TTITLE13=Are You Ready For The Country  (Harvest)
TTITLE14=Old Man  (Harvest)
TTITLE15=There's A World  (Harvest)
TTITLE16=Alabama  (Harvest)
TTITLE17=The Needle And The Damage Done  (Harvest)
TTITLE18=Words (Between The Lines Of Age)  (Harvest)
EXTD=Zuma (Reprise 1975) - Harvest (Reprise 1972)
EXTT0=
EXTT1=
EXTT2=
EXTT3=
EXTT4=
EXTT5=
EXTT6=
EXTT7=
EXTT8=
EXTT9=
EXTT10=
EXTT11=
EXTT12=
EXTT13=
EXTT14=
EXTT15=
EXTT16=
EXTT17=
EXTT18=
PLAYORDER=
